<svg xmlns="http://www.w3.org/2000/svg" xmlns:xlink="http://www.w3.org/1999/xlink" x="0px" y="0px" width="16px" height="64px" viewBox="0 0 16 64">
 <!-- icon name send-2--> 
<g transform="translate(0, 0)"><g class="nc-icon-wrapper" fill="#111111"><path fill="#111111" d="M15.707,0.293c-0.273-0.272-0.68-0.365-1.043-0.234l-14,5C0.287,5.193,0.026,5.54,0.002,5.939 c-0.024,0.4,0.192,0.775,0.551,0.955l4.586,2.292L11,5l-4.187,5.862l2.292,4.586C9.276,15.787,9.623,16,10,16 c0.021,0,0.041-0.001,0.061-0.002c0.4-0.024,0.747-0.284,0.882-0.662l5-14C16.072,0.973,15.98,0.566,15.707,0.293z"/></g></g>

 <!-- icon name briefcase-24--> 
<g transform="translate(0, 16)"><g class="nc-icon-wrapper" fill="#111111"><path fill="#111111" d="M16,10V5c0-0.6-0.4-1-1-1h-3V1c0-0.6-0.4-1-1-1H5C4.4,0,4,0.4,4,1v3H1C0.4,4,0,4.4,0,5v5c0,0.6,0.4,1,1,1h14 C15.6,11,16,10.6,16,10z M6,2h4v2H6V2z"/> <path data-color="color-2" fill="#111111" d="M1,13v2c0,0.6,0.4,1,1,1h12c0.6,0,1-0.4,1-1v-2H1z"/></g></g>

 <!-- icon name 01--> 
<g transform="translate(0, 32)"><g class="nc-icon-wrapper" fill="#111111"><path fill="#111111" d="M8,9L8,9C5.8,9,4,7.2,4,5V4c0-2.2,1.8-4,4-4h0c2.2,0,4,1.8,4,4v1C12,7.2,10.2,9,8,9z"/> <path data-color="color-2" fill="#111111" d="M10,11H6c-2.8,0-5,2.2-5,5v0h14v0C15,13.2,12.8,11,10,11z"/></g></g>

 <!-- icon name home-52--> 
<g transform="translate(0, 48)"><g class="nc-icon-wrapper" fill="#111111"><rect data-color="color-2" x="6" y="6" fill="#111111" width="4" height="2"/> <path fill="#111111" d="M15.651,6.241l-7-6c-0.375-0.322-0.927-0.322-1.302,0L4,3.112V2c0-0.553-0.448-1-1-1S2,1.447,2,2v2.826 L0.349,6.241C-0.07,6.601-0.119,7.231,0.241,7.65c0.359,0.42,0.99,0.468,1.41,0.108L2,7.46V15c0,0.553,0.448,1,1,1h10 c0.552,0,1-0.447,1-1V7.46l0.349,0.299C14.538,7.921,14.769,8,15,8c0.282,0,0.562-0.118,0.76-0.35 C16.119,7.231,16.07,6.601,15.651,6.241z M12,14h-2v-4H6v4H4V5.746l4-3.428l4,3.428V14z"/></g></g>
</svg>